<svg width="1280" height="720" xmlns="http://www.w3.org/2000/svg" xmlns:xlink="http://www.w3.org/1999/xlink" overflow="hidden"><g><rect x="0" y="0" width="1280" height="720" fill="#FFFFFF"/><rect x="59.5001" y="164.5" width="333" height="70" stroke="#172C51" stroke-width="1.33333" stroke-miterlimit="8" fill="#FF0000"/><text fill="#FFFFFF" font-family="Arial,Arial_MSFontService,sans-serif" font-weight="400" font-size="24" transform="translate(119.595 208)">Source 1 Channel 1</text><rect x="59.5001" y="253.5" width="333" height="71" stroke="#172C51" stroke-width="1.33333" stroke-miterlimit="8" fill="#FF0000"/><text fill="#FFFFFF" font-family="Arial,Arial_MSFontService,sans-serif" font-weight="400" font-size="24" transform="translate(119.594 297)">Source 1 Channel 2</text><rect x="59.5001" y="396.5" width="333" height="71" stroke="#172C51" stroke-width="1.33333" stroke-miterlimit="8" fill="#0000FF"/><text fill="#FFFFFF" font-family="Arial,Arial_MSFontService,sans-serif" font-weight="400" font-size="24" transform="translate(119.594 440)">Source 2 Channel 1</text><rect x="59.5001" y="486.5" width="333" height="70" stroke="#172C51" stroke-width="1.33333" stroke-miterlimit="8" fill="#0000FF"/><text fill="#FFFFFF" font-family="Arial,Arial_MSFontService,sans-serif" font-weight="400" font-size="24" transform="translate(119.594 530)">Source 2 Channel 2</text><rect x="614.5" y="74.5001" width="334" height="71" stroke="#172C51" stroke-width="1.33333" stroke-miterlimit="8" fill="#FF00FF"/><text fill="#FFFFFF" font-family="Arial,Arial_MSFontService,sans-serif" font-weight="400" font-size="24" transform="translate(649.734 118)">Mixed Source Channel 1</text><rect x="614.5" y="164.5" width="334" height="70" stroke="#172C51" stroke-width="1.33333" stroke-miterlimit="8" fill="#FF00FF"/><text fill="#FFFFFF" font-family="Arial,Arial_MSFontService,sans-serif" font-weight="400" font-size="24" transform="translate(649.733 208)">Mixed Source Channel 2</text><rect x="614.5" y="307.5" width="334" height="71" stroke="#172C51" stroke-width="1.33333" stroke-miterlimit="8" fill="#FF0000"/><text fill="#FFFFFF" font-family="Arial,Arial_MSFontService,sans-serif" font-weight="400" font-size="24" transform="translate(649.733 351)">Mixed Source Channel 1</text><rect x="614.5" y="396.5" width="334" height="71" stroke="#172C51" stroke-width="1.33333" stroke-miterlimit="8" fill="#FF0000"/><text fill="#FFFFFF" font-family="Arial,Arial_MSFontService,sans-serif" font-weight="400" font-size="24" transform="translate(649.733 440)">Mixed Source Channel 2</text><rect x="614.5" y="486.5" width="334" height="70" stroke="#172C51" stroke-width="1.33333" stroke-miterlimit="8" fill="#0000FF"/><text fill="#FFFFFF" font-family="Arial,Arial_MSFontService,sans-serif" font-weight="400" font-size="24" transform="translate(649.733 530)">Mixed Source Channel 3</text><rect x="614.5" y="575.5" width="334" height="71" stroke="#172C51" stroke-width="1.33333" stroke-miterlimit="8" fill="#0000FF"/><text fill="#FFFFFF" font-family="Arial,Arial_MSFontService,sans-serif" font-weight="400" font-size="24" transform="translate(649.733 619)">Mixed Source Channel 4</text><path d="M950 106C954.418 106 958 106.597 958 107.333L958 152.667C958 153.403 961.582 154 966 154 961.582 154 958 154.597 958 155.333L958 200.667C958 201.403 954.418 202 950 202" stroke="#000000" stroke-width="4" stroke-miterlimit="8" fill="none" fill-rule="evenodd"/><text font-family="Arial,Arial_MSFontService,sans-serif" font-weight="400" font-size="24" transform="translate(967.279 163)">routeChannels</text><text font-family="Arial,Arial_MSFontService,sans-serif" font-weight="400" font-size="24" transform="translate(1129.95 163)">== false</text><path d="M950 342C954.418 342 958 342.597 958 343.333L958 477.167C958 477.903 961.582 478.5 966 478.5 961.582 478.5 958 479.097 958 479.833L958 613.667C958 614.403 954.418 615 950 615" stroke="#000000" stroke-width="4" stroke-miterlimit="8" fill="none" fill-rule="evenodd"/><text font-family="Arial,Arial_MSFontService,sans-serif" font-weight="400" font-size="24" transform="translate(975.439 487)">routeChannels</text><text font-family="Arial,Arial_MSFontService,sans-serif" font-weight="400" font-size="24" transform="translate(1138.11 487)">== true</text><path d="M437.5 348 557.5 348 557.5 335.5 582.5 360.5 557.5 385.5 557.5 373 437.5 373Z" stroke="#172C51" stroke-width="1.33333" stroke-miterlimit="8" fill-rule="evenodd"/><text fill="#FFFFFF" font-family="Arial,Arial_MSFontService,sans-serif" font-weight="400" font-size="24" transform="translate(470.62 369)">IMixer</text></g></svg>