<svg xmlns="http://www.w3.org/2000/svg" viewBox="0 0 1400 400"><rect width="1400" height="400" style="fill:#fff"/><path d="M403,199.18a1.34,1.34,0,0,1,0-.2c-5-47.93-10.57-84.58-16.65-108.92C381,68.68,373.39,46.73,357.49,46c-13.21-.6-21.21,14.09-26.71,26.94C325.1,86.2,319.26,104.88,313,129.87c-1.78-.63-3.55-1.26-5.35-1.84C279,118.72,255.54,118,249,118A182.76,182.76,0,0,0,185,129.41C178.75,104.65,173,86.12,167.3,73,161.79,60.1,153.74,45.41,140.59,46c-15.9.72-23.51,22.67-28.85,44.05-6.09,24.34-11.69,61-16.65,108.92a1.41,1.41,0,0,1,0,.2l0,.59v.46c0,.16,0,.31,0,.47s0,.37.05.55l.06.37a6,6,0,0,0,.12.61c0,.11,0,.21.08.32s.11.41.18.61.07.21.11.32.15.38.23.56.11.23.16.34a5.12,5.12,0,0,0,.27.52l.2.34c.1.16.2.32.31.48l.24.32c.12.16.24.31.37.46a2.85,2.85,0,0,0,.23.26c.16.17.31.33.48.49l.19.18c.2.17.4.34.61.5L99,208l.08.05.54.38.18.1.57.33.15.08a10.87,10.87,0,0,0,1.88.71l.35.09.5.1.4.06.32,0h.18l.38,0,.48,0a10.21,10.21,0,0,0,2.22-.26l0,0a9.32,9.32,0,0,0,1-.3h.05a11,11,0,0,0,2-1l.12-.09c.26-.17.51-.35.76-.55l.18-.15a9.87,9.87,0,0,0,.75-.7l0,0A11.21,11.21,0,0,0,113,206h0c5.22-7,53.38-68,136-68,8.7,0,86.43,1.91,136,68h0a10.24,10.24,0,0,0,2.12,2.09l.12.08a8.09,8.09,0,0,0,.69.44l.13.08c.24.14.48.26.73.38l.1,0c.27.12.53.23.8.33l.07,0c.28.09.57.18.87.25h0c.3.07.6.13.9.17h0a8.52,8.52,0,0,0,.87.08h.12l.39,0,.37,0,.3,0c.12,0,.24,0,.37,0l.3,0,.31,0,.67-.13.27-.08c.23-.06.46-.12.69-.2l.22-.08c.24-.09.48-.19.71-.3l.17-.08q.38-.18.72-.39l.14-.08c.24-.15.48-.31.7-.48l.07,0,.08-.07c.21-.16.41-.33.6-.5l.2-.18c.17-.16.32-.32.48-.49s.15-.17.23-.26.25-.3.37-.46l.24-.33c.11-.15.21-.31.3-.46s.15-.24.21-.35.18-.34.27-.52.11-.22.16-.34.16-.37.23-.57.08-.21.11-.31a6.32,6.32,0,0,0,.18-.62,2.81,2.81,0,0,0,.08-.31c.05-.2.09-.41.12-.61s0-.24.05-.37,0-.37.06-.55,0-.31,0-.47v-.46ZM140.23,153.13a211,211,0,0,0-21.85,17.66c3.51-28.65,7.27-51.92,11.22-69.41,5.14-22.7,9.63-31.17,11.82-34.18,1.79,2.14,5.08,7.16,9.51,18.54,4.81,12.39,10,29.79,15.44,51.74A203.61,203.61,0,0,0,140.23,153.13Zm191.46-15.57c5.44-22,10.64-39.42,15.46-51.82,4.43-11.38,7.72-16.4,9.51-18.54,2.19,3,6.68,11.48,11.81,34.18,3.92,17.34,7.65,40.35,11.13,68.66A184,184,0,0,0,331.69,137.56Z" transform="translate(0 0)"/><path d="M836.85,221.33,777.14,91.16c-3.07-7.11-10-10.56-16.9-10.56a18.12,18.12,0,0,0-16.9,10.56l-59.9,130.17a9.7,9.7,0,0,0-1,4.42c0,5.57,5.18,9.22,10.56,9.22a10.49,10.49,0,0,0,9.79-6.53l16.51-36.29h81.41l16.71,36.29a10.73,10.73,0,0,0,10,6.53c5.38,0,10.56-3.65,10.56-9.22A10.1,10.1,0,0,0,836.85,221.33ZM728,173l30.33-66.63a2.12,2.12,0,0,1,1.92-1.15,2.07,2.07,0,0,1,1.73,1.15L792.11,173Z" transform="translate(0 0)"/><path d="M963.57,232.66c6.53,0,9.79-5,9.79-9.79,0-5-3.26-9.79-9.6-9.79h-64.9c-4.22,0-6-1.92-6-6.53V89.43c0-11.91-20.73-11.91-20.73,0v122.5q0,20.73,20.73,20.73Z" transform="translate(0 0)"/><path d="M1126.58,181.78a8.83,8.83,0,0,0-8.26,5.19c-9.41,20.16-26.69,30.14-47,30.14-30.72,0-52.42-25.73-52.42-60.29,0-33,23.05-58.94,52.42-58.94,18.82,0,35,8.44,44.93,27.26a9.27,9.27,0,0,0,8.45,5c5.57,0,11.33-4.22,11.33-9.6a9.58,9.58,0,0,0-1-3.84c-12.87-26.11-36.29-38.21-63.75-38.21-44,0-73,34.56-73,78.34,0,46.85,29,80.26,73,80.26,31.3,0,53.57-14.4,65.47-40.9a9.16,9.16,0,0,0,1-4.41C1137.71,186,1132,181.78,1126.58,181.78Z" transform="translate(0 0)"/><path d="M1232.75,237.08c43.2,0,62.21-20.16,62.21-46.66,0-23-14.4-35.9-38.4-42.24-12.48-3.45-28-5.37-38.78-8.26-14.79-3.84-22.66-8.25-22.66-18.81,0-13.63,13.44-23.62,35.71-23.62,23.43,0,35.52,9.22,38,23.81,1.53,4.61,5.37,6.53,9.41,6.53,5.37,0,11.13-3.46,11.13-9.22a9.7,9.7,0,0,0-.38-2.3c-3.65-24.39-25.15-37.83-57.79-37.83-35.72,0-56.26,18.63-56.26,42.44v.38c0,19.78,13.06,30.53,36.29,36.86,13.82,3.65,28.61,5,40.13,8.45,15.16,4.23,22.65,12.87,22.65,23.43,0,14.78-11.52,27.26-41.28,27.26-25.15,0-41.28-13.25-42.81-30.91-1-5-4.8-7.11-9-7.11-5.37,0-11.13,3.65-11.13,9.61,0,.57.19,1.15.19,1.72C1172.46,219.41,1197,237.08,1232.75,237.08Z" transform="translate(0 0)"/><path d="M573.63,279.47v19.38c0,7.44-4.68,12.3-11.64,12.3-6.06,0-9.72-3.66-9.72-11.4V279.47c0-2.64-4.2-2.64-4.2,0v20.4c0,9.48,4.74,15.24,13.92,15.24,5.94,0,10.08-2.64,11.7-6.36v4c0,2.64,4.14,2.64,4.14,0v-33.3C577.83,276.83,573.63,276.83,573.63,279.47Z" transform="translate(0 0)"/><path d="M614.61,268.49v15.9c-2.7-4.68-7-7.26-13.26-7.26-9.3,0-15.9,7.92-15.9,19s6.6,19,15.9,19c6.36,0,10.56-2.46,13.32-7.32v5c0,2.64,4.14,2.64,4.14,0V268.49C618.81,265.85,614.61,265.85,614.61,268.49Zm-13,42.54c-7,0-12-6.6-12-14.88s5-14.94,12-14.94c8.28,0,13.26,6.42,13.26,14.94S610,311,601.65,311Z" transform="translate(0 0)"/><path d="M627.69,279.47v33.3c0,2.64,4.2,2.64,4.2,0v-33.3C631.89,276.83,627.69,276.83,627.69,279.47Z" transform="translate(0 0)"/><path d="M629.79,266.87c-1.68,0-2.82,1.5-2.82,3.36s1.14,3.36,2.82,3.36,2.82-1.5,2.82-3.36S631.47,266.87,629.79,266.87Z" transform="translate(0 0)"/><path d="M657.33,277c-10.92,0-17.7,8-17.7,19.2s6.78,19.14,17.7,19.14,17.7-7.92,17.7-19.14S668.25,277,657.33,277Zm0,34.32c-7.92,0-13.56-6.12-13.56-15.12s5.64-15.24,13.56-15.24,13.56,6.24,13.56,15.24S665.25,311.27,657.33,311.27Z" transform="translate(0 0)"/><path d="M764.37,266.87c-1.68,0-2.82,1.5-2.82,3.36s1.14,3.36,2.82,3.36,2.82-1.5,2.82-3.36S766.05,266.87,764.37,266.87Z" transform="translate(0 0)"/><path d="M762.27,279.47v33.3c0,2.64,4.2,2.64,4.2,0v-33.3C766.47,276.83,762.27,276.83,762.27,279.47Z" transform="translate(0 0)"/><path d="M792.93,277.13c-6.3,0-10.56,2.58-13.26,7.26v-15.9c0-2.64-4.2-2.64-4.2,0v44.28c0,2.64,4.14,2.64,4.14,0v-5c2.76,4.86,7,7.32,13.32,7.32,9.3,0,15.9-7.86,15.9-19S802.23,277.13,792.93,277.13Zm-.3,33.9c-8.34,0-13.26-6.36-13.26-14.88s5-14.94,13.26-14.94c7,0,12,6.66,12,14.94S799.65,311,792.63,311Z" transform="translate(0 0)"/><path d="M833,278.27a12.18,12.18,0,0,0-4.32-.78,8,8,0,0,0-7.68,4.68v-2.7c0-2.64-4.2-2.64-4.2,0v33.24c0,2.7,4.2,2.7,4.2,0V292.85c0-6.78,3.18-11.4,7.38-11.4a7.24,7.24,0,0,1,3.36.9,1.69,1.69,0,0,0,.9.24,2.18,2.18,0,0,0,2-2.22A2.21,2.21,0,0,0,833,278.27Z" transform="translate(0 0)"/><path d="M869.36,298c0-2.46.07-4.86.07-7,0-8.82-4.2-13.86-14.34-13.86h-1.26c-6.66.3-12.18,3.72-14.4,8.94a2.29,2.29,0,0,0-.24,1,2.26,2.26,0,0,0,2.34,2.1,2.23,2.23,0,0,0,2.1-1.38,11.14,11.14,0,0,1,10-6.84c.48,0,.9-.06,1.32-.06,6.36,0,9.72,2.52,10.14,6.66v.36c0,5-11.28,3.12-20.64,6.78a10.37,10.37,0,0,0-6.54,9.84,17,17,0,0,0,.12,1.74c.78,5.52,4.86,8.82,13.8,8.82,5.46,0,11.64-2.4,14-6.78a15,15,0,0,0,1,5.22,2.16,2.16,0,0,0,4.08-.78,2.43,2.43,0,0,0-.24-1C869.55,309.11,869.36,303.41,869.36,298Zm-3.77.42v1.32a10.58,10.58,0,0,1-3.18,7.56,14.59,14.59,0,0,1-10.32,3.84c-6.36,0-9.42-1.86-10-5.58a8,8,0,0,1-.06-1.2,6.13,6.13,0,0,1,3.84-5.88c7-3,16.74-2.16,19.8-5.34C865.71,293.09,865.59,296,865.59,298.37Z" transform="translate(0 0)"/><path d="M894.81,278.27a12.18,12.18,0,0,0-4.32-.78,8,8,0,0,0-7.68,4.68v-2.7c0-2.64-4.2-2.64-4.2,0v33.24c0,2.7,4.2,2.7,4.2,0V292.85c0-6.78,3.18-11.4,7.38-11.4a7.24,7.24,0,0,1,3.36.9,1.69,1.69,0,0,0,.9.24,2.18,2.18,0,0,0,2-2.22A2.21,2.21,0,0,0,894.81,278.27Z" transform="translate(0 0)"/><path d="M926.66,277.49a1.93,1.93,0,0,0-1.85,1.32l-10.38,28.56-13-28.62a2.1,2.1,0,0,0-2-1.26,2.14,2.14,0,0,0-2.28,1.92,1.84,1.84,0,0,0,.24.9l14.88,32.46-1.08,2.7c-1.14,2.82-2.34,4.08-4.74,4.08a20.09,20.09,0,0,1-5.22-1.08,2.19,2.19,0,0,0-.84-.12,2.13,2.13,0,0,0-.6,4.14,23.83,23.83,0,0,0,6.6,1.14c4,0,6.9-1.8,8.58-6.42l13.74-37a1.92,1.92,0,0,0,.11-.78A2.13,2.13,0,0,0,926.66,277.49Z" transform="translate(0 0)"/><path d="M970.16,277c-10.92,0-17.7,8-17.7,19.2s6.78,19.14,17.7,19.14,17.7-7.92,17.7-19.14S981.08,277,970.16,277Zm0,34.32c-7.92,0-13.56-6.12-13.56-15.12s5.64-15.24,13.56-15.24,13.56,6.24,13.56,15.24S978.08,311.27,970.16,311.27Z" transform="translate(0 0)"/><path d="M1010.6,267.47a12.56,12.56,0,0,0-5.46-1.32c-4,0-7.26,2.46-7.26,7.68v4.38h-4.26c-2.4,0-2.4,4,0,4h4.26v30.66c0,2.52,4.2,2.52,4.2,0V282.17h7a2,2,0,0,0,0-4h-7v-4.38c0-2.58,1.2-3.84,3.18-3.84a8.24,8.24,0,0,1,3.48,1,2.44,2.44,0,0,0,1.08.3,2,2,0,0,0,.78-3.84Z" transform="translate(0 0)"/><path d="M1112.42,278.27a12.18,12.18,0,0,0-4.32-.78,8,8,0,0,0-7.68,4.68v-2.7c0-2.64-4.2-2.64-4.2,0v33.24c0,2.7,4.2,2.7,4.2,0V292.85c0-6.78,3.18-11.4,7.38-11.4a7.24,7.24,0,0,1,3.36.9,1.69,1.69,0,0,0,.9.24,2.18,2.18,0,0,0,2-2.22A2.21,2.21,0,0,0,1112.42,278.27Z" transform="translate(0 0)"/><path d="M1182.5,266.87c-1.68,0-2.82,1.5-2.82,3.36s1.14,3.36,2.82,3.36,2.82-1.5,2.82-3.36S1184.18,266.87,1182.5,266.87Z" transform="translate(0 0)"/><path d="M1180.4,279.53v27.84c0,6.48-1.2,10-4.92,11.88a2.31,2.31,0,0,0-1.44,2.1,2.17,2.17,0,0,0,2.1,2.28,2.37,2.37,0,0,0,1.2-.3c5.64-2.94,7.26-8.1,7.26-15.84v-28A2.1,2.1,0,0,0,1180.4,279.53Z" transform="translate(0 0)"/><path d="M1195.7,266.87c-1.68,0-2.82,1.5-2.82,3.36s1.14,3.36,2.82,3.36,2.82-1.5,2.82-3.36S1197.38,266.87,1195.7,266.87Z" transform="translate(0 0)"/><path d="M1193.6,279.47v33.3c0,2.64,4.2,2.64,4.2,0v-33.3C1197.8,276.83,1193.6,276.83,1193.6,279.47Z" transform="translate(0 0)"/><path d="M1240.46,277.13a11.21,11.21,0,0,0-10.38,6.9c-1-4.32-4.74-6.9-9.84-6.9-3.78,0-7.92,2.4-9.3,5.7v-3.36c0-2.64-4.14-2.64-4.14,0v33.3c0,2.64,4.2,2.64,4.2,0v-21.3c0-4.86,4-10.44,9.12-10.44s6.84,4.38,6.84,10v21.78c0,2.64,4.14,2.64,4.14,0V290.93c0-4.68,4.44-9.9,9.36-9.9,4.56,0,7,3.36,7,9.36v22.38c0,2.64,4.2,2.64,4.2,0V290.39C1251.68,282.11,1247.84,277.13,1240.46,277.13Z" transform="translate(0 0)"/><path d="M1276.88,277c-10.92,0-17.7,8-17.7,19.2s6.78,19.14,17.7,19.14,17.7-7.92,17.7-19.14S1287.8,277,1276.88,277Zm0,34.32c-7.92,0-13.56-6.12-13.56-15.12s5.64-15.24,13.56-15.24,13.56,6.24,13.56,15.24S1284.8,311.27,1276.88,311.27Z" transform="translate(0 0)"/><path d="M249,174a10,10,0,0,0-10,10V344a10,10,0,0,0,20,0V184A10,10,0,0,0,249,174Z" transform="translate(0 0)" style="fill:#3058d5"/><path d="M209,194a10,10,0,0,0-10,10V324a10,10,0,0,0,20,0V204A10,10,0,0,0,209,194Z" transform="translate(0 0)" style="fill:#3058d5"/><path d="M169,224a10,10,0,0,0-10,10v60a10,10,0,0,0,20,0V234A10,10,0,0,0,169,224Z" transform="translate(0 0)" style="fill:#3058d5"/><path d="M289,194a10,10,0,0,0-10,10V324a10,10,0,0,0,20,0V204A10,10,0,0,0,289,194Z" transform="translate(0 0)" style="fill:#3058d5"/><path d="M329,224a10,10,0,0,0-10,10v60a10,10,0,0,0,20,0V234A10,10,0,0,0,329,224Z" transform="translate(0 0)" style="fill:#3058d5"/><path d="M129,249a10,10,0,0,0-10,10v10a10,10,0,0,0,20,0V259A10,10,0,0,0,129,249Z" transform="translate(0 0)" style="fill:#3058d5"/><path d="M369,249a10,10,0,0,0-10,10v10a10,10,0,0,0,20,0V259A10,10,0,0,0,369,249Z" transform="translate(0 0)" style="fill:#3058d5"/><path d="M637,76.37H498.74C489.33,76.37,484,81.75,484,91V229.59c0,9.41,5.38,14.78,14.79,14.78H637.17c9,0,14.78-5.37,14.78-14.78V91.35C652,81.36,646.39,76.37,637,76.37ZM609.9,118.23H579V216c0,11.71-21.88,11.71-21.88,0V118H526c-11.71,0-11.71-20.74,0-20.74h83.9C621.81,97.3,621.81,118.23,609.9,118.23Z" transform="translate(0 0)" style="fill:#3058d5"/><path d="M535.89,265.19H491.43a3.61,3.61,0,0,0-4,3.9v44.76a3.61,3.61,0,0,0,4,3.9H536a3.61,3.61,0,0,0,4-3.9V269.21C539.91,266.57,538.41,265.19,535.89,265.19Zm-3.54,46.38a2.8,2.8,0,0,1-1,.18,2.89,2.89,0,0,1-2.64-1.8l-4.38-9.54H503.19L498.87,310a2.89,2.89,0,0,1-2.64,1.8,2.8,2.8,0,0,1-1-.18,2.41,2.41,0,0,1-1.68-2.34,2.78,2.78,0,0,1,.24-1.14l15.6-34a4.9,4.9,0,0,1,8.82,0l15.6,34a2.78,2.78,0,0,1,.24,1.14A2.41,2.41,0,0,1,532.35,311.57Z" transform="translate(0 0)" style="fill:#3058d5"/><polygon points="505.41 295.49 522.09 295.49 513.75 277.07 505.41 295.49" style="fill:#3058d5"/><path d="M749.85,265.19H705.39a3.61,3.61,0,0,0-4,3.9v44.76a3.61,3.61,0,0,0,4,3.9h44.52a3.61,3.61,0,0,0,4-3.9V269.21C753.87,266.57,752.37,265.19,749.85,265.19ZM740,310.61H722c-4,0-6.12-2-6.12-6.06V273.47c0-3.54,5.4-3.54,5.4,0v30.78c0,1.14.24,1.32,1.08,1.32H740a2.53,2.53,0,1,1-.06,5Z" transform="translate(0 0)" style="fill:#3058d5"/><path d="M1083.62,265.19h-44.46a3.61,3.61,0,0,0-4,3.9v44.76a3.61,3.61,0,0,0,4,3.9h44.52a3.61,3.61,0,0,0,4-3.9V269.21C1087.64,266.57,1086.14,265.19,1083.62,265.19ZM1079.24,301c-3.36,7.44-9.3,11.28-17.4,11.28-11.22,0-18.84-8.88-18.84-21,0-11.28,7.56-20.46,18.84-20.46a18.07,18.07,0,0,1,17.1,10.62,2.37,2.37,0,0,1,.3,1.2,2.56,2.56,0,0,1-1.62,2.22,2.78,2.78,0,0,1-1.26.24,2.48,2.48,0,0,1-2.28-1.38c-2.88-5.52-7.2-7.86-12.24-7.86-7.38,0-13.5,6.66-13.5,15.42,0,9.18,5.88,15.78,13.5,15.78,5.52,0,9.84-2.58,12.54-8.34a2.57,2.57,0,0,1,2.4-1.56,2.6,2.6,0,0,1,1.14.24,2.66,2.66,0,0,1,1.56,2.4A3.05,3.05,0,0,1,1079.24,301Z" transform="translate(0 0)" style="fill:#3058d5"/><path d="M1166.42,265.19H1122a3.61,3.61,0,0,0-4,3.9v44.76a3.61,3.61,0,0,0,4,3.9h44.52a3.61,3.61,0,0,0,4-3.9V269.21C1170.44,266.57,1168.94,265.19,1166.42,265.19Zm-9.06,43.14c-2.64,2.58-7.08,3.9-12.6,3.9-9.3,0-16.62-4.92-16.62-13.26a2.7,2.7,0,0,1,5.4-.06c0,4.26,4.14,8,11.22,8,4.44,0,7.44-1.08,9.06-2.52a6,6,0,0,0,1.92-4.38,6.27,6.27,0,0,0-.48-2.34c-.9-2.16-3.12-3.54-8.16-4.5-3.84-.78-9.9-1.74-13.2-3.66a8.52,8.52,0,0,1-4.26-7.5,10.46,10.46,0,0,1,2.82-7.08c2.34-2.52,6.9-4.2,11.64-4.2,8.58,0,14.94,3.66,15.3,11.22v.12a2.56,2.56,0,0,1-2.58,2.58h-.24a2.61,2.61,0,0,1-2.64-2.46c-.36-3.78-3.06-6.3-9.9-6.3-3.48,0-6.48,1.14-7.74,2.58a5.59,5.59,0,0,0-1.38,3.48,3.73,3.73,0,0,0,1.92,3.36c2.52,1.44,8.34,2.4,11.28,3,5.46,1.14,9.6,2.76,11.52,6.36a11.11,11.11,0,0,1,1.26,5.16A11.76,11.76,0,0,1,1157.36,308.33Z" transform="translate(0 0)" style="fill:#3058d5"/></svg>